<svg xmlns="http://www.w3.org/2000/svg" viewBox="0 0 44 44"><defs><style>.cls-1{fill:#606060;opacity:0;}.cls-2{fill:#fff;}</style></defs><title>Muax_icons_Artboard 30</title><g id="Layer_3" data-name="Layer 3"><rect class="cls-1" width="44" height="44"/><path class="cls-2" d="M35.18755,36.105a3.49543,3.49543,0,0,1-1.61719-.39941L27.10649,32.3438a.48076.48076,0,0,1-.15918-.04346.5689.5689,0,0,1-.33984-.37939L25.92,28.01812a.55063.55063,0,0,1,.15625-.4873l5.30371-5.21631a2.39238,2.39238,0,0,0-1.34473-4.07324l-7.36426-1.03662a.54927.54927,0,0,1-.415-.29883L20.712,13.80913a.54685.54685,0,0,1,.00781-.50537.50964.50964,0,0,1,.04492-.0708L23.9854,6.6397a3.49234,3.49234,0,0,1,6.2627-.02979l3.18945,6.39648,7.07715.99658a3.47177,3.47177,0,0,1,2.82813,2.36133h0a3.46494,3.46494,0,0,1-.86621,3.585l-5.09668,5.01367,1.23926,7.0376A3.50654,3.50654,0,0,1,35.18755,36.105ZM27.629,31.37554l6.44922,3.353a2.39147,2.39147,0,0,0,3.457-2.53809L36.24614,24.8687a.55063.55063,0,0,1,.15625-.4873l5.30273-5.21631a2.36991,2.36991,0,0,0,.59277-2.4541V16.7105a2.37867,2.37867,0,0,0-1.93652-1.61865l-7.36426-1.03662a.54927.54927,0,0,1-.415-.29883L29.26372,7.10112a2.39153,2.39153,0,0,0-4.28906.02l-3.15137,6.45117,1.28809,2.5835,7.07715.99658a3.49158,3.49158,0,0,1,1.96289,5.94629l-5.09766,5.01367Z"/><path class="cls-2" d="M8.94926,39.32134a3.50117,3.50117,0,0,1-3.44043-4.07227l1.17676-7.04932L1.54594,23.23345A3.492,3.492,0,0,1,3.4561,17.26909l7.06738-1.05859L13.6602,9.78911a3.49156,3.49156,0,0,1,6.26172-.02979l3.18945,6.39648,7.07715.99658a3.49158,3.49158,0,0,1,1.96289,5.94629l-5.09766,5.01367L28.293,35.15A3.49337,3.49337,0,0,1,23.24419,38.855l-6.3418-3.29883-6.31348,3.353A3.51056,3.51056,0,0,1,8.94926,39.32134ZM16.75883,8.92778a2.36356,2.36356,0,0,0-2.10937,1.34277l-3.26465,6.68213a.54918.54918,0,0,1-.41309.30273L3.61821,18.357a2.392,2.392,0,0,0-1.30859,4.08545l5.34766,5.167a.55.55,0,0,1,.16113.48584L6.5938,35.43071a2.36841,2.36841,0,0,0,.96191,2.33447,2.393,2.393,0,0,0,2.51758.17236l6.56836-3.48877a.54828.54828,0,0,1,.51172-.002L23.752,37.87749a2.39108,2.39108,0,0,0,3.457-2.5376L25.92,28.01812a.55063.55063,0,0,1,.15625-.4873l5.30371-5.21631a2.39238,2.39238,0,0,0-1.34473-4.07324l-7.36426-1.03662a.54927.54927,0,0,1-.415-.29883l-3.31836-6.65527A2.38472,2.38472,0,0,0,16.75883,8.92778Z"/></g></svg>