<svg xmlns="http://www.w3.org/2000/svg" viewBox="0 0 44 44"><defs><style>.cls-1{fill:#606060;opacity:0;}.cls-2{fill:#fff;}</style></defs><title>Muax_icons_Artboard 26</title><g id="Layer_3" data-name="Layer 3"><rect class="cls-1" width="44" height="44"/><path class="cls-2" d="M21.26635,35.03667a.54962.54962,0,0,1-.33887-.98291A4.52809,4.52809,0,0,0,22.449,30.92a3.8033,3.8033,0,0,0-.249-2.09277,1.5159,1.5159,0,0,0-.51562-.35986l-.7373.42578a4.23753,4.23753,0,0,1-1.2041.47705,1.79744,1.79744,0,0,1-2.11621-1.03857,4.07134,4.07134,0,0,0-.19629-.43555,1.05465,1.05465,0,0,1-.457-.082.99511.99511,0,0,1-.55273-.63379,1.28186,1.28186,0,0,1-.06738-.37012,1.13467,1.13467,0,0,1-.7168-1.021.54427.54427,0,0,1,.07227-.27246.04892.04892,0,0,1,.00586-.02051,4.17585,4.17585,0,0,1-.68457-.16162,1.0173,1.0173,0,0,1-.624-1.34424c.59961-1.50928.55176-2.147.4873-2.25146a3.23157,3.23157,0,0,1-.98047-2.58008c-.0127-.7666.05469-1.99365.07715-2.38818-.23535-.64111-.94434-3.28271,2.19727-5.811a11.10241,11.10241,0,0,1,9.35449-1.73779,10.29025,10.29025,0,0,1,7.125,6.03906c1.32715,3.08545.66992,6.23535.14258,8.76611-.11133.53076-.21777,1.042-.30176,1.52832-.24316,1.40479.73535,1.67822.84766,1.70508a.54978.54978,0,0,1,.4082.66162.54335.54335,0,0,1-.66211.40869,2.40417,2.40417,0,0,1-1.67773-2.9624c.08594-.49854.19531-1.022.30859-1.56592.52246-2.50342,1.11426-5.34082-.0752-8.10693a9.21621,9.21621,0,0,0-6.38086-5.40576A10.115,10.115,0,0,0,16.87671,11.816c-2.83691,2.28369-1.87207,4.5415-1.83008,4.63623a.55529.55529,0,0,1,.04883.2627c-.001.01563-.09668,1.56543-.083,2.4248a2.1985,2.1985,0,0,0,.63867,1.8042c.20605.18945.82812.76367-.19141,3.37256a3.142,3.142,0,0,0,.50684.104.9308.9308,0,0,1,.72266.519,1.24961,1.24961,0,0,1,.082.854.40255.40255,0,0,0,.06055.01563,3.09927,3.09927,0,0,1,.3252.07959.59892.59892,0,0,1,.34473.86865.64964.64964,0,0,1,.61816.17578,3.86927,3.86927,0,0,1,.53418,1.00732c.11035.29053.4502.41113.92188.34277a3.22773,3.22773,0,0,0,.83984-.353l.84961-.49121c.29785-.18457.93164-.14209,1.70215.6001a3.97111,3.97111,0,0,1,.59961,2.66943A5.64133,5.64133,0,0,1,21.60522,34.92.54766.54766,0,0,1,21.26635,35.03667Zm.56348-6.65381-.02637.01563Zm-4.42871-1.48535-.00391.00439Z"/><path class="cls-2" d="M29.79272,32.49028a.5472.5472,0,0,1-.37109-.14453,8.10015,8.10015,0,0,1-2.374-5.62207c0-2.32129-2.04785-3.8999-7.06836-5.44971-5.0166-1.54834-5.92187-4.314-5.958-4.43115a.55.55,0,0,1,1.0498-.32861c.01855.05371.85352,2.35742,5.23242,3.709,4.07422,1.25732,7.84375,2.915,7.84375,6.50049a7.10323,7.10323,0,0,0,2.01953,4.8125.55025.55025,0,0,1-.374.9541Z"/><path class="cls-2" d="M17.29858,34.20806a.55045.55045,0,0,1-.48926-.80078,1.89185,1.89185,0,0,0-.72852-2.2832c-3.24414-2.73877-5.03613-5.32227-5.47754-7.89893a10.25906,10.25906,0,0,1,3.874-10.25488.55018.55018,0,0,1,.61621.91162,9.17078,9.17078,0,0,0-3.40625,9.15723c.39648,2.31055,2.06543,4.68018,5.10254,7.24414a3.00966,3.00966,0,0,1,.998,3.625A.54862.54862,0,0,1,17.29858,34.20806Z"/><path class="cls-2" d="M36.1062,41.12114H7.89331A5.02,5.02,0,0,1,2.87866,36.1065V7.8936A5.02,5.02,0,0,1,7.89331,2.879H36.1062A5.02,5.02,0,0,1,41.12085,7.8936V36.1065A5.02,5.02,0,0,1,36.1062,41.12114ZM7.89331,3.97857a3.91987,3.91987,0,0,0-3.915,3.915V36.1065a3.91987,3.91987,0,0,0,3.915,3.915H36.1062a3.91987,3.91987,0,0,0,3.915-3.915V7.8936a3.91987,3.91987,0,0,0-3.915-3.915Z"/></g></svg>