<svg xmlns="http://www.w3.org/2000/svg" viewBox="0 0 44 44"><defs><style>.cls-1{fill:#606060;opacity:0;}.cls-2{fill:#fff;}</style></defs><title>Muax_icons_Artboard 25</title><g id="Layer_3" data-name="Layer 3"><rect class="cls-1" width="44" height="44"/><path class="cls-2" d="M3.15276,25.9356a2.87138,2.87138,0,0,1-1.87012-5.04932c3.17773-2.731,9.46973-7.90186,12.09668-9.78857l.53906-.38721c4.52539-3.25586,8.10547-5.832,13.29-5.832.03125,0,.06152,0,.0918.00049,6.30273.03711,15.69922,4.30615,16.0957,4.48779a.54987.54987,0,0,1-.37109,1.03125c-.11035-.0293-11.16406-2.958-16.67676-.71338-5.71,2.32617-16.41992,11.168-21.28516,15.51855A2.85531,2.85531,0,0,1,3.15276,25.9356Zm24.05859-19.957c-4.833,0-8.28516,2.48438-12.65039,5.625l-.53906.3877c-2.60352,1.86963-8.85938,7.01123-12.02246,9.729A1.76979,1.76979,0,0,0,1.88127,24.293h0a1.76308,1.76308,0,0,0,2.44824.09033c.58105-.519,14.293-12.73877,21.60449-15.71729,3.10352-1.26465,7.67187-1.03564,11.34863-.521a34.60272,34.60272,0,0,0-9.98828-2.1665Z"/><path class="cls-2" d="M21.99748,36.22368a16.88236,16.88236,0,0,1-5.00586-.8584c-.5-.14648-.9375-.27441-1.31348-.34766-.20117-.02832-.40625-.05859-.61719-.09033-1.54492-.23291-2.05762.21143-2.11133.48a.57214.57214,0,0,1-.62207.45215.53775.53775,0,0,1-.46875-.585,1.55264,1.55264,0,0,1,.61426-1.00879,3.57908,3.57908,0,0,1,2.752-.42627c.1582.02393.3125.04688.46484.06885a.55575.55575,0,0,1,.08008.00781l.08984.01611c3.33789.47314,5.418.48877,7.708-.49121a30.03645,30.03645,0,0,0,6.51855-4.01855c.4541-.33594.93066-.68848,1.44141-1.06006,4.9873-3.62842,10.36133-7.75488,10.415-7.7959a.55.55,0,0,1,.752.79492c-.25391.29541-6.26953,7.2749-9.80859,10.208-1.64648,1.36572-4.89941,3.75146-8.17676,4.3877A14.17957,14.17957,0,0,1,21.99748,36.22368Zm-.09863-1.10352a13.124,13.124,0,0,0,2.60156-.24316c3.03613-.58936,6.11719-2.856,7.68457-4.1543a71.8333,71.8333,0,0,0,5.877-5.83252c-1.77148,1.332-3.86133,2.8877-5.8877,4.36182-.50781.36963-.98145.72021-1.43359,1.0542a31.27655,31.27655,0,0,1-6.73926,4.14551A10.87331,10.87331,0,0,1,21.89885,35.12017Z"/><path class="cls-2" d="M11.33147,32.80327a1.46048,1.46048,0,0,1-.95508-.31592.55034.55034,0,0,1,.708-.84229c.20215.12939,1.00781.13916,2.3457-1.333.40527-.44434.793-.96094,1.2041-1.50781a18.70565,18.70565,0,0,1,15.30566-8.02393.55054.55054,0,0,1,.51758.58008.58407.58407,0,0,1-.5791.51855,17.52985,17.52985,0,0,0-8.50684,2.25488,16.98654,16.98654,0,0,0-5.85742,5.33154c-.42773.56787-.83105,1.10449-1.26953,1.58691C12.96623,32.45659,11.98674,32.80327,11.33147,32.80327Z"/><path class="cls-2" d="M23.68694,39.12163a.5505.5505,0,0,1-.14453-.01953A4.33863,4.33863,0,0,1,20.518,35.80669a.5498.5498,0,0,1,1.082-.1958h0a3.23381,3.23381,0,0,0,2.23145,2.42969.55016.55016,0,0,1-.14453,1.08105Z"/><path class="cls-2" d="M36.0844,33.335a6.42473,6.42473,0,0,1-4.29492-1.49414.55016.55016,0,0,1,.75977-.7959h0c.09082.08594,2.28418,2.08984,6.19727.69824a.55.55,0,1,1,.36914,1.03613A9.01122,9.01122,0,0,1,36.0844,33.335Z"/><path class="cls-2" d="M34.38322,36.93218a6.90423,6.90423,0,0,1-5.94434-2.95312.54988.54988,0,0,1,.94238-.56689c.08008.12891,1.88184,2.98535,6.31641,2.31787a.5501.5501,0,0,1,.16406,1.08789A9.94668,9.94668,0,0,1,34.38322,36.93218Z"/><path class="cls-2" d="M29.96916,39.11675a.584.584,0,0,1-.10059-.00928c-4.02832-.74365-5.06641-3.46729-5.1084-3.583a.55.55,0,0,1,1.03223-.37988c.03809.10059.90234,2.2583,4.27539,2.88086a.55021.55021,0,0,1-.09863,1.09131Z"/></g></svg>