<svg xmlns="http://www.w3.org/2000/svg" viewBox="0 0 44 44"><defs><style>.cls-1{fill:#606060;}.cls-1,.cls-3{opacity:0;}.cls-2,.cls-3{fill:#fff;}</style></defs><title>Muax_icons_Artboard 27</title><g id="Layer_3" data-name="Layer 3"><rect class="cls-1" width="44" height="44"/><path class="cls-2" d="M22.69245,39.54009A19.57465,19.57465,0,0,1,11.043,35.79448a.46619.46619,0,0,0-.38281-.07324L5.48249,36.94878A2.60129,2.60129,0,0,1,2.668,33.0523h0l2.499-4.05127a.46928.46928,0,0,0,.0332-.43262A16.36471,16.36471,0,0,1,3.8321,22c0-9.67188,8.46094-17.54,18.86035-17.54,10.40039,0,18.86133,7.86816,18.86133,17.54S33.09284,39.54009,22.69245,39.54009ZM10.77253,34.608a1.55678,1.55678,0,0,1,.91895.29834,18.488,18.488,0,0,0,11.001,3.53418C32.4864,38.44048,40.45417,31.065,40.45417,22S32.4864,5.55962,22.69245,5.55962c-9.793,0-17.76074,7.37549-17.76074,16.44043a15.2825,15.2825,0,0,0,1.27734,6.13086,1.57145,1.57145,0,0,1-.10645,1.44775l-2.499,4.05078a1.50181,1.50181,0,0,0,1.625,2.249l5.17773-1.22754A1.583,1.583,0,0,1,10.77253,34.608Z"/><path class="cls-3" d="M22.70027,39.69243C12.20905,39.69243,3.67487,31.75591,3.67487,22S12.20905,4.30718,22.70027,4.30718,41.72566,12.24419,41.72566,22,33.19148,39.69243,22.70027,39.69243Zm0-34.28564C12.81648,5.40679,4.77448,12.85064,4.77448,22s8.042,16.59277,17.92578,16.59277S40.626,31.14946,40.626,22,32.58405,5.40679,22.70027,5.40679Z"/><path class="cls-2" d="M22.69734,30.56157a1.56955,1.56955,0,0,1-.89746-.28369c-.77246-.53711-1.876-1.32568-2.748-2.03125A26.08863,26.08863,0,0,1,15.6407,25.004c-2.87207-3.36426-3.1709-7.25391-.74512-9.6792a5.18473,5.18473,0,0,1,7.3252.00049l.47168.47168.47266-.47168a5.18473,5.18473,0,0,1,7.3252,0c2.42578,2.4248,2.127,6.31445-.74512,9.67871a33.50564,33.50564,0,0,1-6.16211,5.28271A1.57234,1.57234,0,0,1,22.69734,30.56157ZM18.55866,14.91314a4.05441,4.05441,0,0,0-2.88574,1.18945c-1.99512,1.99561-1.67285,5.28564.80371,8.1875a25.08761,25.08761,0,0,0,3.26758,3.10156c.89063.7207,2.06348,1.55176,2.68359,1.98291a.47262.47262,0,0,0,.53809.002,32.43366,32.43366,0,0,0,5.94336-5.08643c2.47656-2.90186,2.79883-6.19189.80371-8.187a4.09351,4.09351,0,0,0-5.77051-.00049l-.8584.8584a.55143.55143,0,0,1-.77539.00293l-.36621-.36133-.002-.00293-.49707-.49707A4.05383,4.05383,0,0,0,18.55866,14.91314Z"/></g></svg>